{"accessors":[{"bufferView":2,"componentType":5126,"count":6171,"max":[4.790923595428467,4.886508464813232,4.793989658355713],"min":[-4.790924072265625,-4.886508464813232,-4.793989658355713],"type":"VEC3"},{"bufferView":2,"byteOffset":74052,"componentType":5126,"count":6171,"max":[1,1,1],"min":[-1,-1,-1],"type":"VEC3"},{"bufferView":1,"componentType":5126,"count":6171,"max":[0.9741812944412231,0.9906265735626221],"min":[0.009211719036102295,0.009373486042022705],"type":"VEC2"},{"bufferView":0,"componentType":5125,"count":36096,"max":[6170],"min":[0],"type":"SCALAR"}],"asset":{"extras":{"author":"Bruce William (https://sketchfab.com/bw.lima)","license":"CC-BY-4.0 (http://creativecommons.org/licenses/by/4.0/)","source":"https://sketchfab.com/3d-models/spalding-basket-ball-db5f9c28708142909b15212625a127f9","title":"Spalding Basket Ball"},"generator":"Sketchfab-8.34.0","version":"2.0"},"bufferViews":[{"buffer":0,"byteLength":144384,"byteOffset":0,"name":"floatBufferViews","target":34963},{"buffer":0,"byteLength":49368,"byteOffset":144384,"byteStride":8,"name":"floatBufferViews","target":34962},{"buffer":0,"byteLength":148104,"byteOffset":193752,"byteStride":12,"name":"floatBufferViews","target":34962}],"buffers":[{"byteLength":341856,"uri":"172586c07eeec34a18c63de143b18f2d.bin"}],"images":[{"uri":"2dad58ccf44028e97ed10ea6e1fa9715.png"},{"uri":"0ee2e8d66d5f30d1706fedc4493f886e.png"}],"materials":[{"doubleSided":false,"emissiveFactor":[0,0,0],"name":"aiStandardSurface1","pbrMetallicRoughness":{"baseColorFactor":[1,1,1,1],"baseColorTexture":{"index":0,"texCoord":0},"metallicFactor":0,"metallicRoughnessTexture":{"index":1,"texCoord":0},"roughnessFactor":0.5357728209531257}}],"meshes":[{"name":"pSphere1_aiStandardSurface1_0","primitives":[{"attributes":{"NORMAL":1,"POSITION":0,"TEXCOORD_0":2},"indices":3,"material":0,"mode":4}]}],"nodes":[{"children":[1],"name":"RootNode (gltf orientation matrix)","rotation":[-0.7071067811865475,0,0,0.7071067811865476]},{"children":[2],"matrix":[2.220446049250313e-16,0,-1,0,0,1,0,0,1,0,2.220446049250313e-16,0,0.000006557798769790679,0,0.000011252978765696753,1],"name":"RootNode (model correction matrix)"},{"children":[3],"matrix":[1,0,0,0,0,0,1,0,0,-1,0,0,0,0,0,1],"name":"5af7a84b609646aca4d2f37cb998b0f3_fbx"},{"children":[4],"name":"RootNode"},{"children":[5],"matrix":[0.9829446077346802,3.0289319259362975e-33,-5.456438677190922e-17,0,-5.365498109774597e-17,2.1461992439098394e-16,-0.9665622115135193,0,3.0289319259362975e-33,0.9829446077346802,2.1825754708763693e-16,0,2.3435225671164517e-7,2.384185791015625e-7,-0.061068445444107056,1],"name":"pSphere1"},{"mesh":0,"name":"pSphere1_aiStandardSurface1_0"}],"samplers":[{"magFilter":9729,"minFilter":9987,"wrapS":10497,"wrapT":10497}],"scene":0,"scenes":[{"name":"OSG_Scene","nodes":[0]}],"textures":[{"sampler":0,"source":0},{"sampler":0,"source":1}]}