{"accessors":[{"bufferView":2,"componentType":5126,"count":65532,"max":[8.646324157714844,-0.3092876970767975,10.42759895324707],"min":[-22.9326229095459,-17.107744216918945,-7.046635627746582],"type":"VEC3"},{"bufferView":2,"byteOffset":786384,"componentType":5126,"count":65532,"max":[0.9999998807907104,0.9999992847442627,0.9999967813491821],"min":[-0.9999960064888,-0.9999997615814209,-0.9999948143959045],"type":"VEC3"},{"bufferView":3,"componentType":5126,"count":65532,"max":[0.9999997615814209,1,0.9999967217445374,1],"min":[-1,-0.9999953508377075,-0.9999502301216125,-1],"type":"VEC4"},{"bufferView":3,"byteOffset":1048512,"componentType":5126,"count":65532,"max":[0.9960784316062927,0.9960784316062927,0.9960784316062927,1],"min":[0.0235294122248888,0,0,1],"type":"VEC4"},{"bufferView":1,"componentType":5126,"count":65532,"max":[0.9998030066490173,0.09582500159740448],"min":[0.00012199999764561653,0.00018400000408291817],"type":"VEC2"},{"bufferView":0,"componentType":5125,"count":198243,"max":[65531],"min":[0],"type":"SCALAR"},{"bufferView":2,"byteOffset":1572768,"componentType":5126,"count":65532,"max":[11.569403648376465,-5.1335906982421875,10.962587356567383],"min":[-21.83600616455078,-17.149160385131836,-5.680474281311035],"type":"VEC3"},{"bufferView":2,"byteOffset":2359152,"componentType":5126,"count":65532,"max":[0.9999993443489075,0.9999832510948181,0.9999755620956421],"min":[-0.9999987483024597,-0.999231219291687,-0.9999997019767761],"type":"VEC3"},{"bufferView":3,"byteOffset":2097024,"componentType":5126,"count":65532,"max":[1,0.9999998807907104,0.99998939037323,1],"min":[-1,-0.9999998211860657,-0.9999779462814331,-1],"type":"VEC4"},{"bufferView":3,"byteOffset":3145536,"componentType":5126,"count":65532,"max":[0.9960784316062927,0.9960784316062927,0.9960784316062927,1],"min":[0.03921568766236305,0.0117647061124444,0.0235294122248888,1],"type":"VEC4"},{"bufferView":1,"byteOffset":524256,"componentType":5126,"count":65532,"max":[0.9998090267181396,0.13439899682998657],"min":[0.00012199999764561653,0.03950199857354164],"type":"VEC2"},{"bufferView":0,"byteOffset":792972,"componentType":5125,"count":182565,"max":[65531],"min":[0],"type":"SCALAR"},{"bufferView":2,"byteOffset":3145536,"componentType":5126,"count":65532,"max":[21.333148956298828,0.38860800862312317,8.460041999816895],"min":[-17.2735652923584,-17.08686065673828,-9.269323348999023],"type":"VEC3"},{"bufferView":2,"byteOffset":3931920,"componentType":5126,"count":65532,"max":[0.9999974370002747,0.9999881386756897,0.9999977946281433],"min":[-0.9999986886978149,-0.9999996423721313,-0.9999982118606567],"type":"VEC3"},{"bufferView":3,"byteOffset":4194048,"componentType":5126,"count":65532,"max":[1,0.9999985098838806,0.9999252557754517,-1],"min":[-1,-0.9999998807907104,-0.9999880194664001,-1],"type":"VEC4"},{"bufferView":3,"byteOffset":5242560,"componentType":5126,"count":65532,"max":[0.9960784316062927,0.9960784316062927,0.9960784316062927,1],"min":[0.03529411926865578,0.007843137718737125,0,1],"type":"VEC4"},{"bufferView":1,"byteOffset":1048512,"componentType":5126,"count":65532,"max":[0.9998090267181396,0.21521000564098358],"min":[0.00012199999764561653,0.0984020009636879],"type":"VEC2"},{"bufferView":0,"byteOffset":1523232,"componentType":5125,"count":182748,"max":[65531],"min":[0],"type":"SCALAR"},{"bufferView":2,"byteOffset":4718304,"componentType":5126,"count":65532,"max":[21.501192092895508,0.24867656826972961,10.517148971557617],"min":[-17.1650447845459,-17.067424774169922,-8.205960273742676],"type":"VEC3"},{"bufferView":2,"byteOffset":5504688,"componentType":5126,"count":65532,"max":[0.9999997019767761,0.9999721050262451,1],"min":[-0.9999998807907104,-0.9999995231628418,-0.9999997019767761],"type":"VEC3"},{"bufferView":3,"byteOffset":6291072,"componentType":5126,"count":65532,"max":[1,0.9999994039535522,0.9999809861183167,1],"min":[-1,-1,-0.9999859929084778,-1],"type":"VEC4"},{"bufferView":3,"byteOffset":7339584,"componentType":5126,"count":65532,"max":[0.9960784316062927,0.9960784316062927,0.9960784316062927,1],"min":[0.01568627543747425,0.01568627543747425,0,1],"type":"VEC4"},{"bufferView":1,"byteOffset":1572768,"componentType":5126,"count":65532,"max":[0.9997889995574951,0.23498499393463135],"min":[0.00012199999764561653,0.13971500098705292],"type":"VEC2"},{"bufferView":0,"byteOffset":2254224,"componentType":5125,"count":197655,"max":[65531],"min":[0],"type":"SCALAR"},{"bufferView":2,"byteOffset":6291072,"componentType":5126,"count":65532,"max":[18.805347442626953,-0.05812668800354004,10.525299072265625],"min":[-17.13504981994629,-17.090105056762695,-12.003196716308594],"type":"VEC3"},{"bufferView":2,"byteOffset":7077456,"componentType":5126,"count":65532,"max":[0.9999986886978149,0.9999977350234985,0.9999988079071045],"min":[-1,-0.9999999403953552,-0.9999995827674866],"type":"VEC3"},{"bufferView":3,"byteOffset":8388096,"componentType":5126,"count":65532,"max":[1,0.9999998211860657,0.9999964833259583,1],"min":[-1,-0.9999998807907104,-0.9999746680259705,-1],"type":"VEC4"},{"bufferView":3,"byteOffset":9436608,"componentType":5126,"count":65532,"max":[0.9960784316062927,0.9960784316062927,0.9960784316062927,1],"min":[0.027450980618596077,0.027450980618596077,0.01568627543747425,1],"type":"VEC4"},{"bufferView":1,"byteOffset":2097024,"componentType":5126,"count":65532,"max":[0.9998170137405396,0.29797399044036865],"min":[0.00012199999764561653,0.19912299513816833],"type":"VEC2"},{"bufferView":0,"byteOffset":3044844,"componentType":5125,"count":213105,"max":[65531],"min":[0],"type":"SCALAR"},{"bufferView":2,"byteOffset":7863840,"componentType":5126,"count":65532,"max":[17.253278732299805,-0.2094551920890808,7.719457149505615],"min":[-21.84054946899414,-16.872068405151367,-12.602540969848633],"type":"VEC3"},{"bufferView":2,"byteOffset":8650224,"componentType":5126,"count":65532,"max":[0.9999995827674866,0.9999926090240479,0.9999992847442627],"min":[-0.9999995827674866,-0.9999998211860657,-0.9999994039535522],"type":"VEC3"},{"bufferView":3,"byteOffset":10485120,"componentType":5126,"count":65532,"max":[1,0.9999998807907104,0.9999861717224121,1],"min":[-1,-0.9999998807907104,-0.9999791383743286,-1],"type":"VEC4"},{"bufferView":3,"byteOffset":11533632,"componentType":5126,"count":65532,"max":[0.9960784316062927,0.9960784316062927,0.9960784316062927,1],"min":[0.0235294122248888,0.0117647061124444,0.007843137718737125,1],"type":"VEC4"},{"bufferView":1,"byteOffset":2621280,"componentType":5126,"count":65532,"max":[0.9998040199279785,0.3592529892921448],"min":[0.00012199999764561653,0.25554001331329346],"type":"VEC2"},{"bufferView":0,"byteOffset":3897264,"componentType":5125,"count":198576,"max":[65531],"min":[0],"type":"SCALAR"},{"bufferView":2,"byteOffset":9436608,"componentType":5126,"count":65534,"max":[13.038491249084473,-0.22690898180007935,12.084392547607422],"min":[-21.886972427368164,-11.607538223266602,-12.00556755065918],"type":"VEC3"},{"bufferView":2,"byteOffset":10223016,"componentType":5126,"count":65534,"max":[1,0.9999638795852661,0.9999954700469971],"min":[-0.9999997615814209,-0.9999998211860657,-0.9999997615814209],"type":"VEC3"},{"bufferView":3,"byteOffset":12582144,"componentType":5126,"count":65534,"max":[1,0.9999997019767761,0.9999824166297913,1],"min":[-1,-0.9999998807907104,-0.9999966621398926,-1],"type":"VEC4"},{"bufferView":3,"byteOffset":13630688,"componentType":5126,"count":65534,"max":[0.9960784316062927,0.9960784316062927,0.9960784316062927,1],"min":[0,0,0,1],"type":"VEC4"},{"bufferView":1,"byteOffset":3145536,"componentType":5126,"count":65534,"max":[0.999813973903656,0.3931879997253418],"min":[0.00012199999764561653,0.3069089949131012],"type":"VEC2"},{"bufferView":0,"byteOffset":4691568,"componentType":5125,"count":186564,"max":[65533],"min":[0],"type":"SCALAR"},{"bufferView":2,"byteOffset":11009424,"componentType":5126,"count":65533,"max":[18.786487579345703,-0.23244038224220276,10.45838737487793],"min":[-22.605932235717773,-17.025623321533203,-8.91800594329834],"type":"VEC3"},{"bufferView":2,"byteOffset":11795820,"componentType":5126,"count":65533,"max":[0.9999995827674866,0.999998927116394,1],"min":[-1,-1,-1],"type":"VEC3"},{"bufferView":3,"byteOffset":14679232,"componentType":5126,"count":65533,"max":[1,0.9999997615814209,0.9999964833259583,1],"min":[-1,-0.9999997615814209,-0.9999978542327881,-1],"type":"VEC4"},{"bufferView":3,"byteOffset":15727760,"componentType":5126,"count":65533,"max":[0.9960784316062927,0.9960784316062927,0.9960784316062927,1],"min":[0,0,0,1],"type":"VEC4"},{"bufferView":1,"byteOffset":3669808,"componentType":5126,"count":65533,"max":[0.9998070001602173,0.45251500606536865],"min":[0.00012199999764561653,0.3665130138397217],"type":"VEC2"},{"bufferView":0,"byteOffset":5437824,"componentType":5125,"count":199848,"max":[65532],"min":[0],"type":"SCALAR"},{"bufferView":2,"byteOffset":12582216,"componentType":5126,"count":65533,"max":[17.285717010498047,-0.2065160870552063,12.344000816345215],"min":[-17.209625244140625,-11.142152786254883,-12.718369483947754],"type":"VEC3"},{"bufferView":2,"byteOffset":13368612,"componentType":5126,"count":65533,"max":[0.9999999403953552,0.9999963641166687,0.9999998807907104],"min":[-0.9999996423721313,-1,-1],"type":"VEC3"},{"bufferView":3,"byteOffset":16776288,"componentType":5126,"count":65533,"max":[1,0.9999987483024597,0.9999814629554749,1],"min":[-1,-0.9999998211860657,-0.9999958276748657,-1],"type":"VEC4"},{"bufferView":3,"byteOffset":17824816,"componentType":5126,"count":65533,"max":[0.9960784316062927,0.9960784316062927,0.9960784316062927,1],"min":[0,0,0,1],"type":"VEC4"},{"bufferView":1,"byteOffset":4194072,"componentType":5126,"count":65533,"max":[0.9998130202293396,0.5225830078125],"min":[0.00012199999764561653,0.41152501106262207],"type":"VEC2"},{"bufferView":0,"byteOffset":6237216,"componentType":5125,"count":182700,"max":[65532],"min":[0],"type":"SCALAR"},{"bufferView":2,"byteOffset":14155008,"componentType":5126,"count":65532,"max":[21.501192092895508,-0.2618807554244995,11.255410194396973],"min":[-21.94289779663086,-17.008150100708008,-11.951109886169434],"type":"VEC3"},{"bufferView":2,"byteOffset":14941392,"componentType":5126,"count":65532,"max":[0.9999995231628418,0.9999954104423523,0.9999999403953552],"min":[-0.9999996423721313,-1,-0.9999985098838806],"type":"VEC3"},{"bufferView":3,"byteOffset":18873344,"componentType":5126,"count":65532,"max":[1,0.9999998807907104,0.9999896883964539,1],"min":[-1,-0.9999991059303284,-0.9999929666519165,-1],"type":"VEC4"},{"bufferView":3,"byteOffset":19921856,"componentType":5126,"count":65532,"max":[0.9960784316062927,0.9960784316062927,0.9960784316062927,1],"min":[0.003921568859368563,0.01568627543747425,0,1],"type":"VEC4"},{"bufferView":1,"byteOffset":4718336,"componentType":5126,"count":65532,"max":[0.9998130202293396,0.5850830078125],"min":[0.00012199999764561653,0.4864790141582489],"type":"VEC2"},{"bufferView":0,"byteOffset":6968016,"componentType":5125,"count":187404,"max":[65531],"min":[0],"type":"SCALAR"},{"bufferView":2,"byteOffset":15727776,"componentType":5126,"count":65532,"max":[19.59331703186035,-0.1503937691450119,8.16909122467041],"min":[-21.881006240844727,-16.07086944580078,-11.926587104797363],"type":"VEC3"},{"bufferView":2,"byteOffset":16514160,"componentType":5126,"count":65532,"max":[0.9999990463256836,1,0.9999989867210388],"min":[-0.9999998807907104,-1,-0.9999947547912598],"type":"VEC3"},{"bufferView":3,"byteOffset":20970368,"componentType":5126,"count":65532,"max":[1,0.9999993443489075,0.9999994039535522,1],"min":[-1,-0.9999999403953552,-0.9999842047691345,-1],"type":"VEC4"},{"bufferView":3,"byteOffset":22018880,"componentType":5126,"count":65532,"max":[0.9960784316062927,0.9960784316062927,0.9960784316062927,1],"min":[0.003921568859368563,0.01568627543747425,0,1],"type":"VEC4"},{"bufferView":1,"byteOffset":5242592,"componentType":5126,"count":65532,"max":[0.9998160004615784,0.6341549754142761],"min":[0.00012199999764561653,0.5444239974021912],"type":"VEC2"},{"bufferView":0,"byteOffset":7717632,"componentType":5125,"count":185091,"max":[65531],"min":[0],"type":"SCALAR"},{"bufferView":2,"byteOffset":17300544,"componentType":5126,"count":65532,"max":[17.1357479095459,-0.23563052713871002,7.845192909240723],"min":[-21.84748077392578,-16.047748565673828,-12.100974082946777],"type":"VEC3"},{"bufferView":2,"byteOffset":18086928,"componentType":5126,"count":65532,"max":[0.9999998211860657,0.9999920725822449,0.9999991059303284],"min":[-1,-0.9999999403953552,-0.9999983906745911],"type":"VEC3"},{"bufferView":3,"byteOffset":23067392,"componentType":5126,"count":65532,"max":[1,0.9999998211860657,0.9999880194664001,1],"min":[-1,-1,-0.9999955892562866,-1],"type":"VEC4"},{"bufferView":3,"byteOffset":24115904,"componentType":5126,"count":65532,"max":[0.9960784316062927,0.9960784316062927,0.9960784316062927,1],"min":[0,0,0,1],"type":"VEC4"},{"bufferView":1,"byteOffset":5766848,"componentType":5126,"count":65532,"max":[0.9998149871826172,0.6978759765625],"min":[0.00012199999764561653,0.6016309857368469],"type":"VEC2"},{"bufferView":0,"byteOffset":8457996,"componentType":5125,"count":195696,"max":[65531],"min":[0],"type":"SCALAR"},{"bufferView":2,"byteOffset":18873312,"componentType":5126,"count":65532,"max":[15.707596778869629,-0.2718970477581024,11.608285903930664],"min":[-22.965229034423828,-12.778079986572266,-12.132913589477539],"type":"VEC3"},{"bufferView":2,"byteOffset":19659696,"componentType":5126,"count":65532,"max":[0.9999995231628418,0.9999840259552002,0.9999998807907104],"min":[-0.999998152256012,-0.9999999403953552,-0.9999995827674866],"type":"VEC3"},{"bufferView":3,"byteOffset":25164416,"componentType":5126,"count":65532,"max":[1,0.9999998211860657,0.9999827146530151,1],"min":[-1,-0.9999998807907104,-0.9999880194664001,-1],"type":"VEC4"},{"bufferView":3,"byteOffset":26212928,"componentType":5126,"count":65532,"max":[0.9960784316062927,0.9960784316062927,0.9960784316062927,1],"min":[0,0,0,1],"type":"VEC4"},{"bufferView":1,"byteOffset":6291104,"componentType":5126,"count":65532,"max":[0.9998149871826172,0.7557370066642761],"min":[0.00012199999764561653,0.6568549871444702],"type":"VEC2"},{"bufferView":0,"byteOffset":9240780,"componentType":5125,"count":186396,"max":[65531],"min":[0],"type":"SCALAR"},{"bufferView":2,"byteOffset":20446080,"componentType":5126,"count":65534,"max":[18.757471084594727,-0.05481185019016266,12.11718463897705],"min":[-22.99736785888672,-15.382601737976074,-12.057310104370117],"type":"VEC3"},{"bufferView":2,"byteOffset":21232488,"componentType":5126,"count":65534,"max":[0.9999980926513672,0.9999918937683105,0.9999995231628418],"min":[-0.9999996423721313,-0.9999998211860657,-0.9999998807907104],"type":"VEC3"},{"bufferView":3,"byteOffset":27261440,"componentType":5126,"count":65534,"max":[1,0.9999994039535522,0.9999741911888123,1],"min":[-1,-0.9999998211860657,-0.9999850988388062,-1],"type":"VEC4"},{"bufferView":3,"byteOffset":28309984,"componentType":5126,"count":65534,"max":[0.9960784316062927,0.9960784316062927,0.9960784316062927,1],"min":[0.0117647061124444,0,0,1],"type":"VEC4"},{"bufferView":1,"byteOffset":6815360,"componentType":5126,"count":65534,"max":[0.9998120069503784,0.8067629933357239],"min":[0.00012199999764561653,0.7170689702033997],"type":"VEC2"},{"bufferView":0,"byteOffset":9986364,"componentType":5125,"count":189759,"max":[65533],"min":[0],"type":"SCALAR"},{"bufferView":2,"byteOffset":22018896,"componentType":5126,"count":65532,"max":[19.171762466430664,0.03770605847239494,11.784061431884766],"min":[-22.43859100341797,-15.168931007385254,-12.168018341064453],"type":"VEC3"},{"bufferView":2,"byteOffset":22805280,"componentType":5126,"count":65532,"max":[0.9999997019767761,1,1],"min":[-0.9999992251396179,-1,-0.9999987483024597],"type":"VEC3"},{"bufferView":3,"byteOffset":29358528,"componentType":5126,"count":65532,"max":[1,0.9999997615814209,0.9999718070030212,1],"min":[-1,-1,-0.9999959468841553,-1],"type":"VEC4"},{"bufferView":3,"byteOffset":30407040,"componentType":5126,"count":65532,"max":[0.9960784316062927,0.9960784316062927,0.9960784316062927,1],"min":[0,0,0,1],"type":"VEC4"},{"bufferView":1,"byteOffset":7339632,"componentType":5126,"count":65532,"max":[0.9998130202293396,0.8914380073547363],"min":[0.00012199999764561653,0.7783799767494202],"type":"VEC2"},{"bufferView":0,"byteOffset":10745400,"componentType":5125,"count":195180,"max":[65531],"min":[0],"type":"SCALAR"},{"bufferView":2,"byteOffset":23591664,"componentType":5126,"count":42302,"max":[19.370874404907227,0.10475730150938034,12.344000816345215],"min":[-22.70121955871582,-14.158675193786621,-12.788395881652832],"type":"VEC3"},{"bufferView":2,"byteOffset":24099288,"componentType":5126,"count":42302,"max":[0.9999987483024597,0.9999568462371826,0.9999920725822449],"min":[-0.9999995827674866,-0.9999997615814209,-0.9999986290931702],"type":"VEC3"},{"bufferView":3,"byteOffset":31455552,"componentType":5126,"count":42302,"max":[1,0.9999986886978149,0.9999970197677612,1],"min":[-1,-0.9999997615814209,-0.9999822974205017,-1],"type":"VEC4"},{"bufferView":3,"byteOffset":32132384,"componentType":5126,"count":42302,"max":[0.9960784316062927,0.9960784316062927,0.9960784316062927,1],"min":[0,0,0,1],"type":"VEC4"},{"bufferView":1,"byteOffset":7863888,"componentType":5126,"count":42302,"max":[0.9997680187225342,0.9532470107078552],"min":[0.00012199999764561653,0.8538119792938232],"type":"VEC2"},{"bufferView":0,"byteOffset":11526120,"componentType":5125,"count":118386,"max":[42301],"min":[0],"type":"SCALAR"}],"asset":{"extras":{"author":"Thomas Flynn (https://sketchfab.com/nebulousflynn)","license":"CC-BY-NC-4.0 (http://creativecommons.org/licenses/by-nc/4.0/)","source":"https://sketchfab.com/3d-models/hintze-hall-nhm-london-surface-model-b2f3e84112d04bf1844e7ac2c4423566","title":"Hintze Hall, NHM London [surface model]"},"generator":"Sketchfab-5.48.2","version":"2.0"},"bufferViews":[{"buffer":0,"byteLength":11999664,"byteOffset":0,"name":"floatBufferViews","target":34963},{"buffer":0,"byteLength":8202304,"byteOffset":11999664,"byteStride":8,"name":"floatBufferViews","target":34962},{"buffer":0,"byteLength":24606912,"byteOffset":20201968,"byteStride":12,"name":"floatBufferViews","target":34962},{"buffer":0,"byteLength":32809216,"byteOffset":44808880,"byteStride":16,"name":"floatBufferViews","target":34962}],"buffers":[{"byteLength":77618096,"uri":"b3fc2146fb82ca04d6d112f18019446f.bin"}],"extensionsUsed":["KHR_materials_unlit"],"images":[{"uri":"c1cb5a95950c4b5ec58c6d8eca7446ab.jpeg"}],"materials":[{"doubleSided":false,"extensions":{"KHR_materials_unlit":{}},"name":"hintze-hall-1m_Material_u1_v1","pbrMetallicRoughness":{"baseColorFactor":[1,1,1,1],"baseColorTexture":{"index":0,"texCoord":0},"metallicFactor":0,"roughnessFactor":1}}],"meshes":[{"primitives":[{"attributes":{"COLOR_0":3,"NORMAL":1,"POSITION":0,"TANGENT":2,"TEXCOORD_0":4},"indices":5,"material":0,"mode":4}]},{"primitives":[{"attributes":{"COLOR_0":9,"NORMAL":7,"POSITION":6,"TANGENT":8,"TEXCOORD_0":10},"indices":11,"material":0,"mode":4}]},{"primitives":[{"attributes":{"COLOR_0":15,"NORMAL":13,"POSITION":12,"TANGENT":14,"TEXCOORD_0":16},"indices":17,"material":0,"mode":4}]},{"primitives":[{"attributes":{"COLOR_0":21,"NORMAL":19,"POSITION":18,"TANGENT":20,"TEXCOORD_0":22},"indices":23,"material":0,"mode":4}]},{"primitives":[{"attributes":{"COLOR_0":27,"NORMAL":25,"POSITION":24,"TANGENT":26,"TEXCOORD_0":28},"indices":29,"material":0,"mode":4}]},{"primitives":[{"attributes":{"COLOR_0":33,"NORMAL":31,"POSITION":30,"TANGENT":32,"TEXCOORD_0":34},"indices":35,"material":0,"mode":4}]},{"primitives":[{"attributes":{"COLOR_0":39,"NORMAL":37,"POSITION":36,"TANGENT":38,"TEXCOORD_0":40},"indices":41,"material":0,"mode":4}]},{"primitives":[{"attributes":{"COLOR_0":45,"NORMAL":43,"POSITION":42,"TANGENT":44,"TEXCOORD_0":46},"indices":47,"material":0,"mode":4}]},{"primitives":[{"attributes":{"COLOR_0":51,"NORMAL":49,"POSITION":48,"TANGENT":50,"TEXCOORD_0":52},"indices":53,"material":0,"mode":4}]},{"primitives":[{"attributes":{"COLOR_0":57,"NORMAL":55,"POSITION":54,"TANGENT":56,"TEXCOORD_0":58},"indices":59,"material":0,"mode":4}]},{"primitives":[{"attributes":{"COLOR_0":63,"NORMAL":61,"POSITION":60,"TANGENT":62,"TEXCOORD_0":64},"indices":65,"material":0,"mode":4}]},{"primitives":[{"attributes":{"COLOR_0":69,"NORMAL":67,"POSITION":66,"TANGENT":68,"TEXCOORD_0":70},"indices":71,"material":0,"mode":4}]},{"primitives":[{"attributes":{"COLOR_0":75,"NORMAL":73,"POSITION":72,"TANGENT":74,"TEXCOORD_0":76},"indices":77,"material":0,"mode":4}]},{"primitives":[{"attributes":{"COLOR_0":81,"NORMAL":79,"POSITION":78,"TANGENT":80,"TEXCOORD_0":82},"indices":83,"material":0,"mode":4}]},{"primitives":[{"attributes":{"COLOR_0":87,"NORMAL":85,"POSITION":84,"TANGENT":86,"TEXCOORD_0":88},"indices":89,"material":0,"mode":4}]},{"primitives":[{"attributes":{"COLOR_0":93,"NORMAL":91,"POSITION":90,"TANGENT":92,"TEXCOORD_0":94},"indices":95,"material":0,"mode":4}]}],"nodes":[{"children":[1],"name":"RootNode (gltf orientation matrix)","rotation":[-0.7071067811865475,0,0,0.7071067811865476]},{"children":[2],"matrix":[1,0,0,0,0,0,-1,0,0,1,0,0,0,-7.7287116050720215,-8.424379348754883,1],"name":"RootNode (model correction matrix)"},{"children":[3,4,5,6,7,8,9,10,11,12,13,14,15,16,17,18],"name":"hintze-hall-1m.obj.cleaner.materialmerger.gles"},{"mesh":0,"name":""},{"mesh":1,"name":""},{"mesh":2,"name":""},{"mesh":3,"name":""},{"mesh":4,"name":""},{"mesh":5,"name":""},{"mesh":6,"name":""},{"mesh":7,"name":""},{"mesh":8,"name":""},{"mesh":9,"name":""},{"mesh":10,"name":""},{"mesh":11,"name":""},{"mesh":12,"name":""},{"mesh":13,"name":""},{"mesh":14,"name":""},{"mesh":15,"name":""}],"samplers":[{"magFilter":9729,"minFilter":9987,"wrapS":10497,"wrapT":10497}],"scene":0,"scenes":[{"name":"OSG_Scene","nodes":[0]}],"textures":[{"sampler":0,"source":0}]}